<svg width="42" height="26" viewBox="0 0 42 26" fill="none" xmlns="http://www.w3.org/2000/svg">
<path d="M21.151 7.78527L21.4682 7.59087L25.52 10.3637L21.151 7.78527ZM20.9157 7.63179L20.619 7.45785L20.9566 2.16797L20.9157 7.63179ZM20.5576 7.61133L19.2172 8.7266L20.8236 7.77504L20.5576 7.61133Z" fill="white"/>
<path d="M20.9995 0.601562C17.0091 0.601562 13.7758 3.83484 13.7758 7.82527C13.7758 11.8157 17.0091 15.049 20.9995 15.049C24.9899 15.049 28.2232 11.8157 28.2232 7.82527C28.2232 3.83484 24.9899 0.601562 20.9995 0.601562ZM20.9995 14.6499C19.3522 14.6499 17.8072 14.0974 16.651 13.0947C15.5357 12.1124 14.666 10.547 14.4511 8.88939C14.9627 12.051 17.6946 14.4555 20.9995 14.4555C24.6625 14.4555 27.6298 11.4883 27.6298 7.82527C27.6298 6.30072 27.067 4.8171 26.1973 3.70182C27.067 4.37713 27.8242 6.29049 27.8242 7.82527C27.8344 11.6008 24.7751 14.6499 20.9995 14.6499ZM20.3754 7.30344L20.9586 1.31779H21.0097L21.0711 7.62063L22.0738 7.01695L21.0711 1.31779C24.6318 1.34849 27.507 4.25434 27.507 7.81504C27.507 8.96101 27.2103 10.0354 26.6884 10.9767L22.1762 7.20113L21.7464 7.44669L26.6577 11.0381C26.6475 11.0585 26.6373 11.079 26.6168 11.0995L21.0916 7.91736V9.03263L26.5759 11.1506C25.4401 13.0435 23.3631 14.3123 20.9995 14.3123C18.6359 14.3123 16.5589 13.0435 15.4231 11.1609L20.9074 9.03263V7.90713L15.3822 11.079C15.372 11.0585 15.3617 11.0381 15.3413 11.0176L20.2321 7.43646L19.8024 7.19089L15.3003 10.946C14.7887 10.0149 14.492 8.95078 14.492 7.80481C14.492 4.26458 17.3263 1.38942 20.846 1.30756L19.9661 7.06811L20.3754 7.30344ZM20.9995 0.990374C17.2342 0.990374 14.1748 4.04971 14.1748 7.81504C14.1748 9.34982 14.7274 10.7925 15.5766 12.051C15.8631 12.5933 16.1701 12.9207 16.5896 13.3607C14.9627 12.0613 13.9088 10.0558 13.9088 7.81504C13.9088 3.89623 17.0807 0.724345 20.9995 0.724345C24.9183 0.724345 28.1516 4.03947 28.0288 7.81504C27.9367 4.13156 24.7137 0.990374 20.9995 0.990374Z" fill="white"/>
<path d="M0.96875 25.467V21.3902H1.57444L2.92561 23.3879L4.27095 21.3902H4.87665V25.467H4.30589V22.3104L2.91979 24.3546L1.5395 22.3162V25.467H0.96875Z" fill="white"/>
<path d="M7.06433 25.5369C6.78089 25.5369 6.53046 25.4728 6.31303 25.3447C6.0956 25.2127 5.92477 25.0322 5.80052 24.8031C5.67628 24.574 5.61415 24.31 5.61415 24.011C5.61415 23.7121 5.67628 23.448 5.80052 23.219C5.92477 22.9899 6.0956 22.8113 6.31303 22.6832C6.53434 22.5511 6.78672 22.4851 7.07015 22.4851C7.33805 22.4851 7.57295 22.5531 7.77485 22.689C7.97675 22.821 8.134 23.0112 8.2466 23.2597C8.36308 23.5043 8.42132 23.7936 8.42132 24.1275H6.06842L6.17326 24.0401C6.17326 24.2459 6.21402 24.4245 6.29556 24.576C6.3771 24.7274 6.48775 24.8439 6.62753 24.9254C6.7673 25.003 6.92649 25.0419 7.10509 25.0419C7.29923 25.0419 7.46036 24.9972 7.58848 24.9079C7.7205 24.8147 7.82339 24.6983 7.89716 24.5585L8.37472 24.7798C8.29707 24.9312 8.19612 25.0652 8.07188 25.1816C7.94763 25.2942 7.80009 25.3816 7.62925 25.4437C7.4623 25.5058 7.27399 25.5369 7.06433 25.5369ZM6.2082 23.7781L6.09754 23.6907H7.93792L7.83309 23.7781C7.83309 23.6072 7.79815 23.4616 7.72826 23.3413C7.65837 23.217 7.56519 23.1238 7.44871 23.0617C7.33223 22.9957 7.20216 22.9627 7.0585 22.9627C6.91873 22.9627 6.78283 22.9957 6.65082 23.0617C6.5227 23.1238 6.41592 23.2151 6.3305 23.3354C6.24897 23.4558 6.2082 23.6033 6.2082 23.7781Z" fill="white"/>
<path d="M9.3057 23.9004C9.3057 23.5859 9.36588 23.3296 9.48624 23.1316C9.6066 22.9336 9.76191 22.786 9.95216 22.689C10.1424 22.5919 10.3424 22.5434 10.552 22.5434V23.0675C10.3773 23.0675 10.2104 23.0947 10.0512 23.1491C9.89586 23.1995 9.76773 23.285 9.66678 23.4053C9.56972 23.5218 9.52118 23.681 9.52118 23.8829L9.3057 23.9004ZM8.96791 25.467V22.555H9.52118V25.467H8.96791Z" fill="white"/>
<path d="M12.3262 25.5369C12.035 25.5369 11.7768 25.4728 11.5516 25.3447C11.3264 25.2127 11.1498 25.0322 11.0216 24.8031C10.8974 24.574 10.8353 24.31 10.8353 24.011C10.8353 23.7121 10.8974 23.448 11.0216 23.219C11.1498 22.9899 11.3245 22.8113 11.5458 22.6832C11.771 22.5511 12.0272 22.4851 12.3146 22.4851C12.598 22.4851 12.8523 22.5511 13.0775 22.6832C13.3066 22.8152 13.4774 23.0035 13.59 23.2481L13.0891 23.4577C13.0154 23.3141 12.9086 23.2015 12.7688 23.12C12.6329 23.0384 12.4757 22.9977 12.2971 22.9977C12.1224 22.9977 11.9671 23.0404 11.8312 23.1258C11.6953 23.2112 11.5885 23.3316 11.5108 23.4869C11.4332 23.6383 11.3944 23.813 11.3944 24.011C11.3944 24.209 11.4332 24.3838 11.5108 24.5352C11.5885 24.6866 11.6972 24.807 11.837 24.8963C11.9768 24.9817 12.134 25.0244 12.3087 25.0244C12.4873 25.0244 12.6465 24.9797 12.7863 24.8904C12.9261 24.7973 13.0309 24.673 13.1008 24.5177L13.6075 24.7215C13.4949 24.9778 13.3241 25.1778 13.095 25.3214C12.8698 25.4651 12.6135 25.5369 12.3262 25.5369Z" fill="white"/>
<path d="M15.442 25.5369C15.1586 25.5369 14.9081 25.4728 14.6907 25.3447C14.4733 25.2127 14.3024 25.0322 14.1782 24.8031C14.0539 24.574 13.9918 24.31 13.9918 24.011C13.9918 23.7121 14.0539 23.448 14.1782 23.219C14.3024 22.9899 14.4733 22.8113 14.6907 22.6832C14.912 22.5511 15.1644 22.4851 15.4478 22.4851C15.7157 22.4851 15.9506 22.5531 16.1525 22.689C16.3544 22.821 16.5117 23.0112 16.6243 23.2597C16.7407 23.5043 16.799 23.7936 16.799 24.1275H14.4461L14.5509 24.0401C14.5509 24.2459 14.5917 24.4245 14.6732 24.576C14.7548 24.7274 14.8654 24.8439 15.0052 24.9254C15.145 25.003 15.3042 25.0419 15.4828 25.0419C15.6769 25.0419 15.838 24.9972 15.9662 24.9079C16.0982 24.8147 16.2011 24.6983 16.2748 24.5585L16.7524 24.7798C16.6747 24.9312 16.5738 25.0652 16.4495 25.1816C16.3253 25.2942 16.1778 25.3816 16.0069 25.4437C15.84 25.5058 15.6517 25.5369 15.442 25.5369ZM14.5859 23.7781L14.4752 23.6907H16.3156L16.2108 23.7781C16.2108 23.6072 16.1758 23.4616 16.1059 23.3413C16.036 23.217 15.9429 23.1238 15.8264 23.0617C15.7099 22.9957 15.5798 22.9627 15.4362 22.9627C15.2964 22.9627 15.1605 22.9957 15.0285 23.0617C14.9004 23.1238 14.7936 23.2151 14.7082 23.3354C14.6266 23.4558 14.5859 23.6033 14.5859 23.7781Z" fill="white"/>
<path d="M19.4772 25.467L19.4539 24.9254V21.3902H20.0013V25.467H19.4772ZM18.4987 25.5369C18.2347 25.5369 18.0037 25.4728 17.8057 25.3447C17.6115 25.2166 17.4582 25.038 17.3456 24.8089C17.2369 24.5798 17.1825 24.3139 17.1825 24.011C17.1825 23.7043 17.2369 23.4383 17.3456 23.2131C17.4582 22.9841 17.6115 22.8055 17.8057 22.6773C18.0037 22.5492 18.2347 22.4851 18.4987 22.4851C18.7433 22.4851 18.9549 22.5492 19.1335 22.6773C19.316 22.8055 19.4558 22.9841 19.5529 23.2131C19.6499 23.4383 19.6985 23.7043 19.6985 24.011C19.6985 24.3139 19.6499 24.5798 19.5529 24.8089C19.4558 25.038 19.316 25.2166 19.1335 25.3447C18.9549 25.4728 18.7433 25.5369 18.4987 25.5369ZM18.6269 25.036C18.7899 25.036 18.9336 24.9933 19.0578 24.9079C19.1821 24.8186 19.2791 24.6983 19.349 24.5468C19.4189 24.3915 19.4539 24.2129 19.4539 24.011C19.4539 23.8091 19.4189 23.6325 19.349 23.481C19.2791 23.3257 19.1821 23.2054 19.0578 23.12C18.9336 23.0307 18.788 22.986 18.621 22.986C18.4502 22.986 18.2988 23.0307 18.1668 23.12C18.0347 23.2054 17.9319 23.3257 17.8581 23.481C17.7843 23.6325 17.7474 23.8091 17.7474 24.011C17.7474 24.2129 17.7843 24.3915 17.8581 24.5468C17.9357 24.6983 18.0406 24.8186 18.1726 24.9079C18.3046 24.9933 18.456 25.036 18.6269 25.036Z" fill="white"/>
<path d="M22.0565 25.5369C21.7731 25.5369 21.5227 25.4728 21.3052 25.3447C21.0878 25.2127 20.917 25.0322 20.7927 24.8031C20.6685 24.574 20.6064 24.31 20.6064 24.011C20.6064 23.7121 20.6685 23.448 20.7927 23.219C20.917 22.9899 21.0878 22.8113 21.3052 22.6832C21.5266 22.5511 21.7789 22.4851 22.0624 22.4851C22.3303 22.4851 22.5652 22.5531 22.7671 22.689C22.969 22.821 23.1262 23.0112 23.2388 23.2597C23.3553 23.5043 23.4135 23.7936 23.4135 24.1275H21.0606L21.1655 24.0401C21.1655 24.2459 21.2062 24.4245 21.2878 24.576C21.3693 24.7274 21.48 24.8439 21.6197 24.9254C21.7595 25.003 21.9187 25.0419 22.0973 25.0419C22.2914 25.0419 22.4526 24.9972 22.5807 24.9079C22.7127 24.8147 22.8156 24.6983 22.8894 24.5585L23.3669 24.7798C23.2893 24.9312 23.1883 25.0652 23.0641 25.1816C22.9398 25.2942 22.7923 25.3816 22.6215 25.4437C22.4545 25.5058 22.2662 25.5369 22.0565 25.5369ZM21.2004 23.7781L21.0898 23.6907H22.9301L22.8253 23.7781C22.8253 23.6072 22.7904 23.4616 22.7205 23.3413C22.6506 23.217 22.5574 23.1238 22.4409 23.0617C22.3244 22.9957 22.1944 22.9627 22.0507 22.9627C21.9109 22.9627 21.7751 22.9957 21.643 23.0617C21.5149 23.1238 21.4081 23.2151 21.3227 23.3354C21.2412 23.4558 21.2004 23.6033 21.2004 23.7781Z" fill="white"/>
<path d="M25.0026 25.5369C24.7968 25.5369 24.6124 25.5058 24.4493 25.4437C24.2901 25.3816 24.1543 25.2981 24.0417 25.1933C23.9329 25.0885 23.8514 24.97 23.7971 24.838L24.2746 24.6284C24.3367 24.7487 24.4299 24.8477 24.5542 24.9254C24.6784 25.003 24.8162 25.0419 24.9677 25.0419C25.1346 25.0419 25.2725 25.0108 25.3812 24.9487C25.4899 24.8866 25.5442 24.7992 25.5442 24.6866C25.5442 24.5779 25.5035 24.4925 25.4219 24.4304C25.3404 24.3682 25.222 24.3178 25.0667 24.2789L24.793 24.209C24.5212 24.1353 24.3096 24.0246 24.1581 23.8771C24.0106 23.7295 23.9368 23.5626 23.9368 23.3762C23.9368 23.0928 24.0281 22.8734 24.2106 22.7181C24.393 22.5628 24.6629 22.4851 25.0201 22.4851C25.1948 22.4851 25.354 22.5104 25.4977 22.5609C25.6452 22.6113 25.7694 22.6832 25.8704 22.7763C25.9752 22.8695 26.049 22.9802 26.0917 23.1083L25.6258 23.318C25.5792 23.2015 25.4996 23.1161 25.387 23.0617C25.2744 23.0035 25.1424 22.9744 24.991 22.9744C24.8357 22.9744 24.7134 23.0093 24.6241 23.0792C24.5348 23.1452 24.4901 23.2384 24.4901 23.3587C24.4901 23.4247 24.527 23.4888 24.6008 23.5509C24.6784 23.6092 24.791 23.6577 24.9386 23.6965L25.253 23.7722C25.4433 23.8188 25.6005 23.8907 25.7248 23.9877C25.849 24.0809 25.9422 24.1877 26.0043 24.308C26.0665 24.4245 26.0975 24.5468 26.0975 24.675C26.0975 24.8497 26.049 25.003 25.9519 25.1351C25.8587 25.2632 25.7287 25.3622 25.5617 25.4321C25.3986 25.502 25.2123 25.5369 25.0026 25.5369Z" fill="white"/>
<path d="M26.6206 23.9761V23.4927H28.3678V23.9761H26.6206Z" fill="white"/>
<path d="M29.2185 25.467V21.3902H30.5289C30.8084 21.3902 31.0472 21.4329 31.2452 21.5184C31.4471 21.6038 31.6025 21.73 31.7112 21.8969C31.8238 22.0639 31.8801 22.2697 31.8801 22.5143C31.8801 22.7006 31.8354 22.8676 31.7461 23.0151C31.6607 23.1588 31.5403 23.2772 31.385 23.3704C31.5869 23.4675 31.7403 23.5975 31.8451 23.7606C31.9538 23.9237 32.0082 24.1178 32.0082 24.343C32.0082 24.5798 31.9538 24.7837 31.8451 24.9545C31.7403 25.1215 31.5908 25.2496 31.3967 25.3389C31.2025 25.4243 30.9696 25.467 30.6978 25.467H29.2185ZM29.7834 24.9487H30.6628C30.9036 24.9487 31.0899 24.8924 31.222 24.7798C31.3578 24.6633 31.4258 24.508 31.4258 24.3139C31.4258 24.0964 31.3481 23.9295 31.1928 23.813C31.0414 23.6926 30.8279 23.6325 30.5522 23.6325H29.7834V24.9487ZM29.7834 23.1432H30.6221C30.8317 23.1432 30.9968 23.087 31.1171 22.9744C31.2414 22.8618 31.3035 22.7064 31.3035 22.5084C31.3035 22.3027 31.2336 22.1454 31.0938 22.0367C30.954 21.9241 30.758 21.8678 30.5056 21.8678H29.7834V23.1432Z" fill="white"/>
<path d="M33.932 25.5369C33.6486 25.5369 33.3982 25.4728 33.1807 25.3447C32.9633 25.2127 32.7925 25.0322 32.6682 24.8031C32.544 24.574 32.4818 24.31 32.4818 24.011C32.4818 23.7121 32.544 23.448 32.6682 23.219C32.7925 22.9899 32.9633 22.8113 33.1807 22.6832C33.402 22.5511 33.6544 22.4851 33.9378 22.4851C34.2057 22.4851 34.4406 22.5531 34.6425 22.689C34.8444 22.821 35.0017 23.0112 35.1143 23.2597C35.2308 23.5043 35.289 23.7936 35.289 24.1275H32.9361L33.0409 24.0401C33.0409 24.2459 33.0817 24.4245 33.1632 24.576C33.2448 24.7274 33.3554 24.8439 33.4952 24.9254C33.635 25.003 33.7942 25.0419 33.9728 25.0419C34.1669 25.0419 34.328 24.9972 34.4562 24.9079C34.5882 24.8147 34.6911 24.6983 34.7648 24.5585L35.2424 24.7798C35.1648 24.9312 35.0638 25.0652 34.9396 25.1816C34.8153 25.2942 34.6678 25.3816 34.4969 25.4437C34.33 25.5058 34.1417 25.5369 33.932 25.5369ZM33.0759 23.7781L32.9652 23.6907H34.8056L34.7008 23.7781C34.7008 23.6072 34.6658 23.4616 34.596 23.3413C34.5261 23.217 34.4329 23.1238 34.3164 23.0617C34.1999 22.9957 34.0699 22.9627 33.9262 22.9627C33.7864 22.9627 33.6505 22.9957 33.5185 23.0617C33.3904 23.1238 33.2836 23.2151 33.1982 23.3354C33.1167 23.4558 33.0759 23.6033 33.0759 23.7781Z" fill="white"/>
<path d="M35.8356 25.467V22.555H36.3539L36.3889 23.0908V25.467H35.8356ZM37.8507 25.467V23.9761H38.404V25.467H37.8507ZM37.8507 23.9761C37.8507 23.7121 37.8196 23.5121 37.7575 23.3762C37.6993 23.2364 37.6158 23.1394 37.5071 23.085C37.4022 23.0307 37.2799 23.0015 37.1402 22.9977C36.9033 22.9977 36.7189 23.0811 36.5869 23.2481C36.4549 23.415 36.3889 23.6499 36.3889 23.9528H36.1501C36.1501 23.6461 36.1947 23.384 36.284 23.1665C36.3772 22.9452 36.5073 22.7763 36.6743 22.6599C36.8451 22.5434 37.047 22.4851 37.2799 22.4851C37.509 22.4851 37.707 22.5317 37.874 22.6249C38.0448 22.7181 38.1749 22.8637 38.2642 23.0617C38.3574 23.2558 38.404 23.5121 38.404 23.8305V23.9761H37.8507Z" fill="white"/>
<path d="M38.9546 25.467V25.0419L40.597 23.0268H38.9546V22.555H41.3017V22.9685L39.6535 24.9953H41.3133V25.467H38.9546Z" fill="white"/>
</svg>
